<mxfile host="app.diagrams.net" modified="2024-05-10T07:07:50.418Z" agent="Mozilla/5.0 (Windows NT 10.0; Win64; x64) AppleWebKit/537.36 (KHTML, like Gecko) Chrome/123.0.0.0 Safari/537.36 OPR/109.0.0.0" etag="Ufw5HdocZoChFQ-owdoy" version="24.3.1" type="device">
  <diagram name="Page-1" id="rWy5ySdi-ZFI-wNCVn74">
    <mxGraphModel dx="111" dy="497" grid="1" gridSize="10" guides="1" tooltips="1" connect="1" arrows="1" fold="1" page="1" pageScale="1" pageWidth="850" pageHeight="1100" math="0" shadow="0">
      <root>
        <mxCell id="0" />
        <mxCell id="1" parent="0" />
        <mxCell id="ev8EhrqsVHmFaRyN2bmS-16" style="edgeStyle=orthogonalEdgeStyle;rounded=0;orthogonalLoop=1;jettySize=auto;html=1;entryX=0.5;entryY=1;entryDx=0;entryDy=0;" edge="1" parent="1" source="ev8EhrqsVHmFaRyN2bmS-1" target="ev8EhrqsVHmFaRyN2bmS-8">
          <mxGeometry relative="1" as="geometry" />
        </mxCell>
        <object label="SuperDriverState" id="ev8EhrqsVHmFaRyN2bmS-1">
          <mxCell style="swimlane;fontStyle=0;childLayout=stackLayout;horizontal=1;startSize=26;fillColor=none;horizontalStack=0;resizeParent=1;resizeParentMax=0;resizeLast=0;collapsible=1;marginBottom=0;whiteSpace=wrap;html=1;" vertex="1" parent="1">
            <mxGeometry x="1100" y="590" width="330" height="126" as="geometry">
              <mxRectangle x="260" y="190" width="130" height="30" as="alternateBounds" />
            </mxGeometry>
          </mxCell>
        </object>
        <mxCell id="ev8EhrqsVHmFaRyN2bmS-2" value="+ StateOfPoin: int&lt;span style=&quot;white-space: pre;&quot;&gt;&#x9;&lt;/span&gt;&lt;span style=&quot;white-space: pre;&quot;&gt;&#x9;&lt;/span&gt;&lt;span style=&quot;white-space: pre;&quot;&gt;&#x9;&lt;/span&gt;&lt;span style=&quot;white-space: pre;&quot;&gt;&#x9;&lt;/span&gt;&lt;span style=&quot;white-space: pre;&quot;&gt;&#x9;&lt;/span&gt;&lt;span style=&quot;white-space: pre;&quot;&gt;&#x9;&lt;/span&gt;&lt;span style=&quot;white-space: pre;&quot;&gt;&#x9;&lt;/span&gt;&lt;span style=&quot;white-space: pre;&quot;&gt;&#x9;&lt;/span&gt;&lt;span style=&quot;white-space: pre;&quot;&gt;&#x9;&lt;/span&gt;&amp;lt;&amp;lt;+get&amp;gt;&amp;gt; &amp;lt;&amp;lt;-set&amp;gt;&amp;gt;" style="text;strokeColor=none;fillColor=none;align=left;verticalAlign=top;spacingLeft=4;spacingRight=4;overflow=hidden;rotatable=0;points=[[0,0.5],[1,0.5]];portConstraint=eastwest;whiteSpace=wrap;html=1;fontSize=9;" vertex="1" parent="ev8EhrqsVHmFaRyN2bmS-1">
          <mxGeometry y="26" width="330" height="20" as="geometry" />
        </mxCell>
        <mxCell id="ev8EhrqsVHmFaRyN2bmS-3" value="+ IsSuper: int&lt;span style=&quot;white-space: pre;&quot;&gt;&#x9;&lt;/span&gt;&lt;span style=&quot;white-space: pre;&quot;&gt;&#x9;&lt;/span&gt;&lt;span style=&quot;white-space: pre;&quot;&gt;&#x9;&lt;/span&gt;&lt;span style=&quot;white-space: pre;&quot;&gt;&#x9;&lt;/span&gt;&lt;span style=&quot;white-space: pre;&quot;&gt;&#x9;&lt;span style=&quot;white-space: pre;&quot;&gt;&#x9;&lt;/span&gt;&lt;/span&gt;&lt;span style=&quot;white-space: pre;&quot;&gt;&#x9;&lt;/span&gt;&lt;span style=&quot;white-space: pre;&quot;&gt;&#x9;&lt;/span&gt;&lt;span style=&quot;white-space: pre;&quot;&gt;&#x9;&lt;/span&gt;&lt;span style=&quot;white-space: pre;&quot;&gt;&#x9;&lt;/span&gt;&amp;lt;&amp;lt;+get&amp;gt;&amp;gt; &amp;lt;&amp;lt;-set&amp;gt;&amp;gt;" style="text;strokeColor=none;fillColor=none;align=left;verticalAlign=top;spacingLeft=4;spacingRight=4;overflow=hidden;rotatable=0;points=[[0,0.5],[1,0.5]];portConstraint=eastwest;whiteSpace=wrap;html=1;fontSize=9;" vertex="1" parent="ev8EhrqsVHmFaRyN2bmS-1">
          <mxGeometry y="46" width="330" height="20" as="geometry" />
        </mxCell>
        <mxCell id="ev8EhrqsVHmFaRyN2bmS-4" value="+ NumberOfDrivers: int&lt;span style=&quot;white-space: pre;&quot;&gt;&#x9;&lt;/span&gt;&lt;span style=&quot;white-space: pre;&quot;&gt;&#x9;&lt;/span&gt;&lt;span style=&quot;white-space: pre;&quot;&gt;&#x9;&lt;/span&gt;&lt;span style=&quot;white-space: pre;&quot;&gt;&#x9;&lt;/span&gt;&lt;span style=&quot;white-space: pre;&quot;&gt;&#x9;&lt;/span&gt;&lt;span style=&quot;white-space: pre;&quot;&gt;&#x9;&lt;/span&gt;&lt;span style=&quot;white-space: pre;&quot;&gt;&#x9;&lt;/span&gt;&lt;span style=&quot;white-space: pre;&quot;&gt;&#x9;&lt;/span&gt;&amp;lt;&amp;lt;+get&amp;gt;&amp;gt; &amp;lt;&amp;lt;-set&amp;gt;&amp;gt;" style="text;strokeColor=none;fillColor=none;align=left;verticalAlign=top;spacingLeft=4;spacingRight=4;overflow=hidden;rotatable=0;points=[[0,0.5],[1,0.5]];portConstraint=eastwest;whiteSpace=wrap;html=1;fontSize=9;" vertex="1" parent="ev8EhrqsVHmFaRyN2bmS-1">
          <mxGeometry y="66" width="330" height="20" as="geometry" />
        </mxCell>
        <mxCell id="ev8EhrqsVHmFaRyN2bmS-5" value="+ DateOfGettingStatus: DateOnly?&lt;span style=&quot;font-size: 9px; white-space: pre;&quot;&gt;&#x9;&lt;/span&gt;&lt;span style=&quot;font-size: 9px; white-space: pre;&quot;&gt;&#x9;&lt;span style=&quot;white-space: pre;&quot;&gt;&#x9;&lt;/span&gt;&lt;/span&gt;&lt;span style=&quot;font-size: 9px; white-space: pre;&quot;&gt;&#x9;&lt;/span&gt;&lt;span style=&quot;font-size: 9px; white-space: pre;&quot;&gt;&#x9;&lt;/span&gt;&lt;span style=&quot;font-size: 9px;&quot;&gt;&amp;lt;&amp;lt;+get&amp;gt;&amp;gt; &amp;lt;&amp;lt;-set&amp;gt;&amp;gt;&lt;/span&gt;" style="text;strokeColor=none;fillColor=none;align=left;verticalAlign=top;spacingLeft=4;spacingRight=4;overflow=hidden;rotatable=0;points=[[0,0.5],[1,0.5]];portConstraint=eastwest;whiteSpace=wrap;html=1;fontSize=10;" vertex="1" parent="ev8EhrqsVHmFaRyN2bmS-1">
          <mxGeometry y="86" width="330" height="20" as="geometry" />
        </mxCell>
        <mxCell id="ev8EhrqsVHmFaRyN2bmS-6" value="+ DateOfEndingOfStatus:&amp;nbsp;&lt;span style=&quot;font-size: 10px;&quot;&gt;DateOnly?&lt;/span&gt;&lt;span style=&quot;white-space: pre;&quot;&gt;&#x9;&lt;span style=&quot;white-space: pre;&quot;&gt;&#x9;&lt;/span&gt;&lt;/span&gt;&lt;span style=&quot;white-space: pre;&quot;&gt;&#x9;&lt;/span&gt;&lt;span style=&quot;white-space: pre;&quot;&gt;&#x9;&lt;/span&gt;&lt;span style=&quot;white-space: pre;&quot;&gt;&#x9;&lt;/span&gt;&amp;lt;&amp;lt;+get&amp;gt;&amp;gt; &amp;lt;&amp;lt;-set&amp;gt;&amp;gt;" style="text;strokeColor=none;fillColor=none;align=left;verticalAlign=top;spacingLeft=4;spacingRight=4;overflow=hidden;rotatable=0;points=[[0,0.5],[1,0.5]];portConstraint=eastwest;whiteSpace=wrap;html=1;fontSize=9;" vertex="1" parent="ev8EhrqsVHmFaRyN2bmS-1">
          <mxGeometry y="106" width="330" height="20" as="geometry" />
        </mxCell>
        <mxCell id="ev8EhrqsVHmFaRyN2bmS-7" value="0..1" style="edgeLabel;resizable=0;html=1;align=left;verticalAlign=bottom;" connectable="0" vertex="1" parent="1">
          <mxGeometry x="1280" y="579.9985714285714" as="geometry" />
        </mxCell>
        <mxCell id="ev8EhrqsVHmFaRyN2bmS-8" value="&lt;div&gt;&lt;span style=&quot;font-size: 16px;&quot;&gt;User&lt;/span&gt;&lt;/div&gt;" style="swimlane;fontStyle=1;align=center;verticalAlign=top;childLayout=stackLayout;horizontal=1;startSize=26;horizontalStack=0;resizeParent=1;resizeParentMax=0;resizeLast=0;collapsible=1;marginBottom=0;whiteSpace=wrap;html=1;" vertex="1" parent="1">
          <mxGeometry x="1110" y="219.33000000000004" width="300" height="160" as="geometry" />
        </mxCell>
        <mxCell id="ev8EhrqsVHmFaRyN2bmS-9" value="+ Id: int &lt;span style=&quot;white-space: pre;&quot;&gt;&#x9;&lt;/span&gt;&lt;span style=&quot;white-space: pre;&quot;&gt;&#x9;&lt;/span&gt;&lt;span style=&quot;white-space: pre;&quot;&gt;&#x9;&lt;span style=&quot;white-space: pre;&quot;&gt;&#x9;&lt;/span&gt;&lt;span style=&quot;white-space: pre;&quot;&gt;&#x9;&lt;/span&gt;&lt;/span&gt;&amp;lt;&amp;lt;+get&amp;gt;&amp;gt; &amp;lt;&amp;lt;-set&amp;gt;&amp;gt;&lt;div&gt;+ Username:string&lt;span style=&quot;white-space: pre;&quot;&gt;&#x9;&lt;span style=&quot;white-space: pre;&quot;&gt;&#x9;&lt;span style=&quot;white-space: pre;&quot;&gt;&#x9;&lt;/span&gt;&lt;/span&gt;&amp;lt;&amp;lt;+get&amp;gt;&amp;gt; &amp;lt;&amp;lt;-set&amp;gt;&amp;gt;&lt;/span&gt;&lt;/div&gt;&lt;div&gt;+ Password:string&lt;span style=&quot;white-space: pre;&quot;&gt;&#x9;&lt;/span&gt;&lt;span style=&quot;white-space: pre;&quot;&gt;&#x9;&lt;/span&gt;&lt;span style=&quot;white-space: pre;&quot;&gt;&#x9;&lt;/span&gt;&amp;lt;&amp;lt;+get&amp;gt;&amp;gt; &amp;lt;&amp;lt;-set&amp;gt;&amp;gt;&lt;/div&gt;&lt;div&gt;+Role:enum&lt;span style=&quot;white-space: pre;&quot;&gt;&#x9;&lt;/span&gt;&lt;span style=&quot;white-space: pre;&quot;&gt;&#x9;&lt;/span&gt;&lt;span style=&quot;white-space: pre;&quot;&gt;&#x9;&lt;/span&gt;&lt;span style=&quot;white-space: pre;&quot;&gt;&#x9;&lt;/span&gt;&amp;lt;&amp;lt;+get&amp;gt;&amp;gt;&amp;lt;&amp;lt;-set&amp;gt;&amp;gt;&lt;/div&gt;" style="text;strokeColor=none;fillColor=none;align=left;verticalAlign=top;spacingLeft=4;spacingRight=4;overflow=hidden;rotatable=0;points=[[0,0.5],[1,0.5]];portConstraint=eastwest;whiteSpace=wrap;html=1;" vertex="1" parent="ev8EhrqsVHmFaRyN2bmS-8">
          <mxGeometry y="26" width="300" height="84" as="geometry" />
        </mxCell>
        <mxCell id="ev8EhrqsVHmFaRyN2bmS-10" value="" style="line;strokeWidth=1;fillColor=none;align=left;verticalAlign=middle;spacingTop=-1;spacingLeft=3;spacingRight=3;rotatable=0;labelPosition=right;points=[];portConstraint=eastwest;strokeColor=inherit;" vertex="1" parent="ev8EhrqsVHmFaRyN2bmS-8">
          <mxGeometry y="110" width="300" height="50" as="geometry" />
        </mxCell>
        <mxCell id="ev8EhrqsVHmFaRyN2bmS-17" value="0..1" style="edgeLabel;resizable=0;html=1;align=left;verticalAlign=bottom;" connectable="0" vertex="1" parent="1">
          <mxGeometry x="1230" y="409.9985714285714" as="geometry">
            <mxPoint x="-14" y="-8" as="offset" />
          </mxGeometry>
        </mxCell>
      </root>
    </mxGraphModel>
  </diagram>
</mxfile>
